<svg width="822" height="850" viewBox="0 0 822 850" fill="none" xmlns="http://www.w3.org/2000/svg">
<g clip-path="url(#clip0_550_126)">
<rect width="822" height="850" fill="#F5C543"/>
<circle cx="411.569" cy="420.29" r="340.29" fill="black"/>
<path d="M572.742 329.132C581.34 296.62 568.95 250.295 561.351 230.48C557.957 234.724 540.135 252.549 528.254 257.642C516.373 262.734 516.373 282.256 512.978 292.442C510.263 300.59 503.36 307.154 500.249 309.417C456.798 327.751 452.158 354.403 455.27 365.437C475.16 411.382 454.639 434.942 429.94 445.567C410.524 453.919 389.449 444.899 369.297 438.524C334.045 427.373 317.642 448.251 313.545 463.048C295.212 531.07 287.273 593.906 245.889 635.344C234.063 647.185 221.482 661.658 210.582 674.357C188.411 700.187 148.799 742.585 148.799 792.5V831.83H421.259H492.611H631.02C642.724 761.081 550.586 693.651 547.836 691.656C547.75 691.593 547.735 691.582 547.649 691.518C505.367 660.213 376.907 636.232 427.292 546.329C433.059 536.039 445.267 532.665 456.816 535.057C483.814 540.647 520.413 546.606 533.346 542.833C553.714 536.892 547.773 520.765 549.471 508.882C551.168 496.999 562.2 492.755 560.503 487.662C559.145 483.588 551.451 478.609 547.773 476.628C570.178 477.986 572.95 463.613 571.535 456.257C570.121 452.862 571.026 444.884 585.962 440.13C600.899 435.377 600.106 425.701 597.843 421.457C590.545 413.494 575.627 387.047 568.616 373.966C568.32 373.414 567.749 373.076 567.122 373.076H560.503C559.565 373.076 558.805 373.836 558.805 374.774V376.471C558.805 377.409 558.043 378.177 557.11 378.08C545.117 376.839 535.157 363.005 537.589 365.437C539.252 367.101 552.35 365.481 562.181 363.907C565.754 363.334 568.51 360.49 569.06 356.913L571.212 342.921C571.41 341.637 570.868 340.33 569.71 339.741C560.162 334.878 541.82 336.103 533.346 337.427C538.71 331.466 556.242 331.611 567.333 332.692C569.775 332.93 572.115 331.504 572.742 329.132Z" fill="#F5C543"/>
<ellipse cx="390.481" cy="822.141" rx="241.68" ry="145.92" fill="black"/>
<ellipse cx="390.481" cy="839.24" rx="241.68" ry="145.92" fill="#F5C543"/>
<ellipse cx="390.481" cy="856.34" rx="241.68" ry="145.92" fill="black"/>
<ellipse cx="390.481" cy="872.299" rx="241.68" ry="145.92" fill="#F5C543"/>
<rect x="-45" y="786.801" width="912" height="116.28" fill="#F5C543"/>
</g>
<defs>
<clipPath id="clip0_550_126">
<rect width="822" height="850" fill="white"/>
</clipPath>
</defs>
</svg>
